<svg width="14" height="14" viewBox="0 0 14 14" fill="none" xmlns="http://www.w3.org/2000/svg">
<path d="M3.02227 8.03983C2.97448 8.07814 2.91722 8.09676 2.86039 8.09676C2.78449 8.09676 2.70926 8.0636 2.6581 7.99975L2.62251 7.95535C2.58424 7.90759 2.56562 7.85046 2.56558 7.79367C2.56555 7.7177 2.59874 7.64241 2.66263 7.59118C2.77426 7.50177 2.9373 7.51965 3.0268 7.63127L3.06239 7.67566C3.10067 7.72343 3.11929 7.78055 3.11935 7.83735C3.11935 7.91332 3.08613 7.98861 3.02227 8.03983ZM3.7588 9.3733C3.80997 9.43726 3.88526 9.47051 3.96123 9.47051C4.01799 9.47051 4.07518 9.45196 4.12294 9.41372C4.18687 9.36258 4.22012 9.2873 4.22015 9.21133C4.22015 9.15456 4.2016 9.09737 4.16336 9.04961L4.12783 9.00521C4.03843 8.89349 3.87538 8.87539 3.76369 8.9648C3.69977 9.01593 3.66652 9.09122 3.66648 9.16719C3.66648 9.22396 3.68504 9.28114 3.72328 9.32891L3.7588 9.3733ZM3.65538 8.16499C3.71227 8.16499 3.76959 8.14634 3.81742 8.10793C3.88127 8.05667 3.9144 7.98135 3.9143 7.90538C3.91421 7.84859 3.89556 7.79143 3.85721 7.74373L3.82159 7.69937C3.73202 7.58781 3.56895 7.57 3.45739 7.65957C3.39376 7.71067 3.36063 7.78567 3.3605 7.86134C3.36044 7.91837 3.37909 7.97582 3.41756 8.02377L3.45318 8.06814C3.50438 8.13187 3.57954 8.16499 3.65538 8.16499ZM2.99879 8.86969C3.04996 8.93349 3.12515 8.96665 3.20102 8.96665C3.25788 8.96665 3.31514 8.94803 3.36296 8.90965C3.42682 8.85842 3.46001 8.7831 3.45995 8.70714C3.45988 8.65037 3.44123 8.59318 3.40296 8.54548L3.36737 8.50112C3.27783 8.38956 3.11479 8.37165 3.0032 8.46116C2.93934 8.51239 2.90615 8.58771 2.90621 8.66368C2.90628 8.72044 2.92493 8.77763 2.96321 8.82533L2.99879 8.86969ZM0.223573 6.13301C-0.128065 5.69416 -0.0571483 5.05105 0.381663 4.69938C0.598786 4.52536 0.869663 4.45156 1.133 4.48113C1.16152 4.21779 1.29254 3.96942 1.50963 3.7954C1.94848 3.44373 2.59162 3.51458 2.94329 3.95346C3.23901 4.32249 3.2359 4.83594 2.96654 5.1991L3.42358 5.76939L3.62898 5.60479C3.68556 5.55949 3.75851 5.53993 3.83008 5.55084C3.93101 5.56625 4.03337 5.5885 4.13437 5.61706C4.27206 5.65592 4.35214 5.79908 4.31325 5.93677C4.27436 6.07443 4.13123 6.15467 3.99351 6.11562C3.94941 6.10318 3.90511 6.09221 3.86087 6.08288L2.102 7.49241C2.09889 7.77958 2.15812 8.08239 2.27528 8.37509C2.32845 8.50792 2.26385 8.65869 2.13102 8.71183C2.09944 8.72449 2.06687 8.73045 2.03484 8.73045C1.93206 8.73045 1.83478 8.66886 1.79424 8.5676C1.63317 8.16515 1.56232 7.74289 1.58942 7.34643C1.59434 7.27416 1.62935 7.20722 1.68589 7.16192L1.89126 6.99735L1.43421 6.42704C1.02105 6.61084 0.519288 6.50194 0.223573 6.13301ZM1.33321 5.88671C1.38101 5.8484 1.43823 5.82981 1.49506 5.82981C1.57096 5.82981 1.64619 5.863 1.69739 5.92686L2.29561 6.67334L3.01932 6.09337L2.4211 5.34693C2.37812 5.29334 2.35824 5.22482 2.36575 5.15652C2.37327 5.08826 2.40762 5.02573 2.46125 4.98279C2.67714 4.80974 2.71205 4.49333 2.539 4.27744C2.36598 4.06158 2.04957 4.02661 1.83368 4.19969C1.66416 4.33554 1.60127 4.56341 1.67724 4.76674C1.71639 4.87149 1.68388 4.98959 1.59658 5.05954C1.50931 5.12952 1.38697 5.13557 1.29322 5.0745C1.11133 4.95617 0.875233 4.96783 0.70568 5.10367C0.489787 5.27669 0.454879 5.5931 0.627865 5.80899C0.800916 6.02485 1.11732 6.05979 1.33321 5.88671ZM5.57133 6.32746V6.77586C5.57133 6.91892 5.68733 7.03492 5.83039 7.03492C5.97346 7.03492 6.08945 6.91892 6.08945 6.77586V6.32746C6.08945 6.1844 5.97346 6.06841 5.83039 6.06841C5.68733 6.06841 5.57133 6.1844 5.57133 6.32746ZM8.48007 6.50854C8.29118 6.36325 8.093 6.28792 7.891 6.28459C7.88815 6.28449 7.8853 6.28449 7.88252 6.28459C7.53949 6.29022 7.19819 6.51204 6.92148 6.90924C6.50394 7.50854 6.22539 8.52612 6.50087 9.31135C6.53827 9.41799 6.63836 9.48473 6.74532 9.48473C6.77375 9.48473 6.8027 9.48 6.83107 9.47006C6.96607 9.42272 7.03715 9.27489 6.98977 9.13986C6.78207 8.54778 7.0081 7.69137 7.34663 7.20544C7.52152 6.95438 7.71815 6.80792 7.88683 6.80277C7.97384 6.80539 8.06713 6.84454 8.16418 6.91925C8.27755 7.00649 8.44024 6.98524 8.52748 6.87187C8.61468 6.75844 8.59347 6.59581 8.48007 6.50854ZM10.2921 9.22266C10.436 9.2257 10.5539 9.11288 10.5573 8.96982C10.5754 8.21146 10.3218 7.35392 9.71445 7.14761C9.71176 7.1467 9.70904 7.14583 9.70635 7.14502C9.43502 7.06273 9.12247 7.11924 8.80272 7.30858C8.20268 7.66391 7.65811 8.44137 7.50782 9.15725C7.47845 9.29727 7.56812 9.4346 7.70814 9.464C7.72608 9.46776 7.74399 9.46961 7.7616 9.46961C7.88158 9.46961 7.98925 9.38577 8.0149 9.26372C8.13604 8.68664 8.58822 8.0378 9.0667 7.75442C9.25332 7.6439 9.42537 7.60319 9.55179 7.63966C9.84546 7.74386 10.0548 8.30883 10.0393 8.95755C10.0359 9.10051 10.1491 9.21923 10.2921 9.22266ZM2.5707 3.17862C2.60713 3.1963 2.64563 3.20468 2.68359 3.20468C2.7797 3.20468 2.87205 3.15096 2.91683 3.05864C2.92746 3.03675 3.05579 2.70762 3.06689 2.6822C3.67429 1.51867 4.83788 0.747424 6.26007 0.565921C7.74263 0.376842 9.22942 0.886894 10.1403 1.89735C10.2361 2.00359 10.4 2.01208 10.5062 1.91632C10.6125 1.82051 10.621 1.65668 10.5251 1.55044C10.0051 0.973549 9.31806 0.532082 8.53836 0.273769C7.79573 0.027729 6.98527 -0.0488873 6.19447 0.0519509C4.59958 0.255506 3.29127 1.12863 2.60496 2.44752C2.59191 2.47262 2.45727 2.81707 2.44924 2.83562C2.38913 2.96373 2.44302 3.11667 2.5707 3.17862ZM7.9547 5.4227C8.05311 5.52659 8.04864 5.69054 7.94476 5.78895C7.84088 5.88732 7.67692 5.88285 7.57851 5.77897C7.48603 5.68134 7.36835 5.61583 7.23824 5.58957C7.11736 5.56519 7.03045 5.45897 7.03045 5.33563V5.00012H5.88959V5.33563C5.88959 5.45897 5.80264 5.56519 5.68179 5.58957C5.38226 5.64999 5.16491 5.91527 5.16491 6.22028V9.14685C5.16491 9.28992 5.04891 9.40591 4.90585 9.40591C4.76278 9.40591 4.64679 9.28992 4.64679 9.14685V6.22028C4.64679 5.74306 4.94127 5.31979 5.3715 5.14438V4.861C5.24816 4.75508 5.16986 4.59806 5.16986 4.42313V4.08153C5.16986 3.76341 5.42869 3.50458 5.74685 3.50458H7.17325C7.49141 3.50458 7.75021 3.76341 7.75021 4.08153V4.42313C7.75021 4.59809 7.67194 4.75511 7.54856 4.861V5.14425C7.70108 5.20633 7.83903 5.30056 7.9547 5.4227ZM7.23212 4.08153C7.23212 4.04963 7.20518 4.02269 7.17328 4.02269H5.74688C5.71495 4.02269 5.68801 4.04963 5.68801 4.08153V4.42313C5.68801 4.44725 5.70345 4.46856 5.72476 4.47753C5.72551 4.47782 5.72625 4.47815 5.727 4.47841C5.73325 4.48074 5.73995 4.482 5.74688 4.482H7.17328C7.18005 4.482 7.18662 4.4808 7.19275 4.47857C7.19378 4.47815 7.19479 4.47776 7.19582 4.47737C7.2169 4.46834 7.23215 4.44709 7.23215 4.42313V4.08153H7.23212ZM12.8198 9.30763C12.8064 9.88876 12.4295 10.6354 11.7855 11.3561C11.1589 12.0575 10.3525 12.6607 9.5004 13.0679V13.7323C9.5004 13.8754 9.38441 13.9914 9.24134 13.9914H4.50968C4.36662 13.9914 4.25063 13.8754 4.25063 13.7323V13.0679C3.39849 12.6607 2.59211 12.0575 1.96548 11.3561C1.32152 10.6354 0.944563 9.88879 0.931222 9.30763C0.928923 9.2065 0.985656 9.11327 1.07655 9.06888C1.16748 9.02451 1.2759 9.03711 1.3542 9.10113C1.46669 9.19316 1.8852 9.42599 3.33777 9.60056C4.32245 9.71888 5.57885 9.78407 6.87553 9.78407C8.17221 9.78407 9.42861 9.71888 10.4133 9.60056C11.8658 9.42599 12.2843 9.19316 12.3968 9.10116C12.4751 9.03714 12.5835 9.02454 12.6744 9.06888C12.7653 9.11327 12.8221 9.2065 12.8198 9.30763ZM8.98225 13.1613H4.76874V13.4733H8.98225V13.1613ZM12.2008 9.76901C10.7611 10.2731 7.58085 10.3022 6.8755 10.3022C6.17015 10.3022 2.98989 10.2732 1.55014 9.76901C1.63401 9.9964 1.76798 10.2435 1.94414 10.497C1.94867 10.5019 1.95304 10.507 1.95728 10.5124C1.99495 10.5602 2.07529 10.6404 2.1904 10.6404C2.29286 10.6404 2.39024 10.5758 2.45756 10.463C2.5309 10.3401 2.6899 10.3001 2.81279 10.3733C2.93562 10.4467 2.97577 10.6057 2.90242 10.7286C2.79142 10.9145 2.63016 11.0487 2.44707 11.1139C2.63589 11.3154 2.84712 11.5143 3.077 11.704C3.15792 11.6119 3.29538 11.5878 3.40432 11.6529C3.52714 11.7263 3.56723 11.8853 3.49385 12.0081C3.49181 12.0116 3.48974 12.015 3.48764 12.0184C3.82072 12.2546 4.18311 12.468 4.56558 12.6432H9.18542C9.54431 12.4788 9.88552 12.2808 10.2014 12.0618C10.1895 12.0444 10.178 12.0265 10.167 12.0082C10.0936 11.8854 10.1337 11.7263 10.2565 11.6529C10.3793 11.5795 10.5384 11.6196 10.6118 11.7424C10.6134 11.7452 10.6151 11.7479 10.6168 11.7507C10.8701 11.5461 11.1018 11.33 11.3068 11.1108C11.1273 11.0445 10.9694 10.9116 10.8601 10.7286C10.7867 10.6058 10.8268 10.4467 10.9497 10.3734C11.0725 10.3 11.2316 10.3401 11.3049 10.463C11.3723 10.5757 11.4696 10.6404 11.572 10.6404C11.6566 10.6404 11.7221 10.597 11.764 10.5576C11.9614 10.283 12.1103 10.0145 12.2008 9.76901ZM12.4772 3.6991C12.354 3.6263 12.1952 3.66717 12.1224 3.79035L12.0895 3.84598C12.0651 3.88737 12.0534 3.9328 12.0534 3.97758C12.0535 4.06618 12.099 4.15245 12.1808 4.20083C12.2221 4.22527 12.2675 4.23687 12.3123 4.23687C12.4009 4.23687 12.4872 4.1914 12.5356 4.10957L12.5685 4.05391C12.5929 4.01252 12.6046 3.96709 12.6046 3.92231C12.6045 3.83371 12.559 3.74744 12.4772 3.6991ZM11.7667 4.20251C11.6433 4.13004 11.4846 4.17126 11.4121 4.2946L11.3793 4.3503C11.3551 4.39149 11.3436 4.43663 11.3436 4.48122C11.3435 4.57008 11.3893 4.65664 11.4714 4.70492C11.5126 4.72914 11.5578 4.74067 11.6024 4.74067C11.6912 4.74067 11.7778 4.69495 11.826 4.61286L11.8588 4.55716C11.883 4.51597 11.8945 4.47083 11.8945 4.42624C11.8945 4.33735 11.8488 4.25079 11.7667 4.20251ZM11.8642 3.33771C11.741 3.26491 11.5822 3.30588 11.5094 3.42906L11.4766 3.48469C11.4521 3.52608 11.4405 3.57151 11.4405 3.61629C11.4406 3.70489 11.4861 3.79116 11.5679 3.83947C11.6093 3.86389 11.6546 3.87548 11.6994 3.87548C11.788 3.87548 11.8744 3.82995 11.9227 3.74809L11.9556 3.69246C11.98 3.65107 11.9916 3.60564 11.9916 3.56086C11.9915 3.47229 11.946 3.38602 11.8642 3.33771ZM13.9871 4.34531C13.6732 5.30231 13.1897 6.3468 12.589 7.3658C12.3329 7.80021 12.0607 8.22111 11.78 8.61689C11.7295 8.68809 11.6496 8.72611 11.5685 8.72611C11.5167 8.72611 11.4644 8.7106 11.4189 8.67832C11.3022 8.59555 11.2747 8.43383 11.3575 8.31716C11.6298 7.9332 11.894 7.52457 12.1427 7.10269C12.6317 6.27316 13.0399 5.42814 13.3373 4.63238C13.2664 4.65858 13.1932 4.68902 13.1179 4.72347C13.1096 4.72785 13.1011 4.73176 13.0924 4.73523C12.3751 5.07003 11.4736 5.76602 10.5777 6.69328C10.5518 6.76822 10.5253 6.84338 10.4981 6.91899C10.4497 7.0536 10.3014 7.12358 10.1667 7.07504C10.0321 7.02663 9.96217 6.87822 10.0106 6.74361C10.0427 6.6543 10.0739 6.56547 10.1041 6.4771C10.1053 6.47315 10.1067 6.4692 10.1081 6.46528C10.5464 5.1801 10.7817 3.99963 10.7733 3.17117C10.7726 3.16123 10.7725 3.15125 10.7729 3.14131C10.7726 3.12476 10.7722 3.10835 10.7717 3.09209C10.259 3.72882 9.75275 4.46561 9.28923 5.25179C9.15018 5.48763 9.01509 5.72787 8.88773 5.96585C8.82021 6.09201 8.66319 6.13952 8.53706 6.07197C8.4109 6.00445 8.36339 5.84746 8.43091 5.72133C8.56164 5.47711 8.70027 5.23061 8.84291 4.98865C9.43563 3.98328 10.0979 3.05459 10.7581 2.30307C10.8215 2.23098 10.9195 2.1998 11.0129 2.22208C11.1062 2.24436 11.1796 2.31641 11.2036 2.40934C11.2197 2.47155 11.2334 2.53712 11.245 2.60597C12.0013 1.96587 12.6218 1.76235 13.055 2.01775C13.6123 2.3463 13.5694 3.24021 13.3761 4.07615C13.4933 4.04261 13.6051 4.01945 13.7111 4.00718C13.7988 3.99695 13.8858 4.03224 13.9417 4.1007C13.9975 4.16916 14.0146 4.26135 13.9871 4.34531ZM12.7919 2.4641C12.599 2.35038 12.0924 2.49561 11.2902 3.26284C11.2838 3.92325 11.1493 4.74731 10.8986 5.66029C11.5642 5.05727 12.2101 4.59569 12.7796 4.31345C13.0917 3.21624 13.0139 2.59506 12.7919 2.4641ZM12.5378 2.89508C12.4145 2.82244 12.2557 2.8635 12.1831 2.98675L12.1503 3.04242C12.1259 3.08383 12.1143 3.12927 12.1144 3.17405C12.1145 3.26265 12.1601 3.34888 12.2419 3.39713C12.2832 3.42145 12.3285 3.43301 12.3732 3.43301C12.4619 3.43301 12.5483 3.38742 12.5966 3.30546L12.6294 3.24979C12.6538 3.20838 12.6654 3.16294 12.6653 3.11816C12.6652 3.02956 12.6196 2.94333 12.5378 2.89508ZM4.62118 10.9311C4.69452 10.8083 4.6544 10.6492 4.53157 10.5759C4.40878 10.5025 4.24969 10.5426 4.17634 10.6655C4.10899 10.7782 4.01165 10.8429 3.90919 10.8429C3.80676 10.8429 3.70945 10.7782 3.64213 10.6655C3.56879 10.5427 3.40982 10.5025 3.2869 10.5758C3.16407 10.6492 3.12392 10.8082 3.19726 10.931C3.35798 11.2002 3.62413 11.361 3.90919 11.361C4.19425 11.361 4.4604 11.2003 4.62118 10.9311ZM6.56864 10.9311C6.64202 10.8083 6.6019 10.6493 6.47907 10.5759C6.35628 10.5026 6.19719 10.5426 6.12381 10.6655C6.05642 10.7782 5.95908 10.8429 5.85665 10.8429C5.75423 10.8429 5.65689 10.7782 5.58953 10.6655C5.51619 10.5427 5.35716 10.5025 5.2343 10.5759C5.11148 10.6492 5.07135 10.8083 5.1447 10.9311C5.30548 11.2003 5.57163 11.361 5.85665 11.361C6.14168 11.361 6.40783 11.2003 6.56864 10.9311ZM9.75156 11.361C10.0366 11.361 10.3028 11.2003 10.4635 10.9311C10.5369 10.8083 10.4968 10.6492 10.3739 10.5759C10.2511 10.5025 10.0921 10.5426 10.0187 10.6655C9.95135 10.7782 9.85401 10.8429 9.75156 10.8429C9.64913 10.8429 9.55179 10.7782 9.48444 10.6655C9.41106 10.5426 9.25203 10.5025 9.1292 10.5759C9.00638 10.6492 8.96625 10.8083 9.0396 10.9311C9.20038 11.2003 9.46653 11.361 9.75156 11.361ZM5.42856 11.6528C5.30574 11.5795 5.14671 11.6196 5.07333 11.7424C5.00594 11.8552 4.90857 11.9199 4.80614 11.9199C4.70375 11.9199 4.60641 11.8552 4.53899 11.7424C4.46561 11.6196 4.30655 11.5795 4.18376 11.6528C4.06093 11.7262 4.02084 11.8853 4.09419 12.0081C4.255 12.2773 4.52115 12.438 4.80611 12.438C5.09114 12.438 5.35729 12.2773 5.5181 12.0081C5.59151 11.8853 5.55139 11.7262 5.42856 11.6528ZM6.56327 11.7424C6.48992 11.6196 6.33089 11.5795 6.20803 11.6528C6.08521 11.7262 6.04509 11.8852 6.11843 12.008C6.27921 12.2772 6.54536 12.438 6.83039 12.438C7.11548 12.438 7.38163 12.2772 7.54238 12.008C7.61572 11.8852 7.5756 11.7262 7.45277 11.6528C7.32995 11.5795 7.17089 11.6196 7.09754 11.7424C7.03022 11.8552 6.93285 11.9198 6.83039 11.9198C6.72796 11.9199 6.63059 11.8552 6.56327 11.7424ZM7.80409 11.361C8.08915 11.361 8.35533 11.2003 8.51611 10.9311C8.58945 10.8083 8.54933 10.6492 8.42651 10.5759C8.30368 10.5025 8.14465 10.5426 8.07127 10.6655C8.00392 10.7782 7.90655 10.8429 7.80412 10.8429C7.7017 10.8429 7.60436 10.7782 7.537 10.6655C7.46365 10.5427 7.30463 10.5025 7.18177 10.5759C7.05894 10.6492 7.01882 10.8083 7.09217 10.9311C7.25291 11.2003 7.51903 11.361 7.80409 11.361ZM8.23225 11.6528C8.10942 11.7262 8.0693 11.8853 8.14264 12.0081C8.30342 12.2773 8.56957 12.438 8.8546 12.438C9.13963 12.438 9.40578 12.2773 9.56659 12.0081C9.63997 11.8853 9.59984 11.7262 9.47702 11.6528C9.35419 11.5795 9.19513 11.6196 9.12179 11.7424C9.0544 11.8552 8.95703 11.9199 8.8546 11.9199C8.75218 11.9199 8.65483 11.8552 8.58748 11.7424C8.51417 11.6196 8.35514 11.5795 8.23225 11.6528Z" fill="black"/>
</svg>
