<svg width="14" height="14" viewBox="0 0 14 14" fill="none" xmlns="http://www.w3.org/2000/svg">
<path d="M9.66108 4.07278e-06C9.63634 0.000182666 9.61153 0.00490652 9.58969 0.0178632C9.54571 0.0438584 9.51772 0.0917166 9.51829 0.142863C9.51887 0.200001 9.53521 1.54943 9.91987 2.21429C10.1498 2.61543 10.4062 2.8125 10.7052 2.8125C10.8417 2.8125 10.9862 2.77493 11.1424 2.6875C11.3284 2.58322 11.5299 2.44215 11.5976 2.19643C11.6564 1.98215 11.5991 1.73493 11.428 1.43751C11.0436 0.771506 9.78587 0.0481481 9.73247 0.0178632C9.71048 0.00529172 9.68582 -0.000171018 9.66108 4.07278e-06ZM13.1057 1.05358C13.0812 1.05591 13.0552 1.0655 13.0343 1.08036C12.9875 1.1135 11.8917 1.89501 11.5619 2.58929C11.2726 3.19815 11.3716 3.61372 11.8742 3.85715C12.0027 3.91858 12.1611 3.98215 12.3293 3.98215C12.6326 3.98215 12.8753 3.78272 13.07 3.37501C13.399 2.68072 13.2631 1.23944 13.2574 1.17858C13.2525 1.12772 13.2234 1.08394 13.1771 1.0625C13.1537 1.05188 13.1302 1.05136 13.1057 1.05358ZM10.1697 2.85715C9.41956 2.85715 8.5211 3.09715 8.48312 3.10715C8.43314 3.12029 8.39752 3.15565 8.38496 3.20536C8.3721 3.25535 8.38324 3.3125 8.42065 3.34822C8.46234 3.3885 9.45475 4.33143 10.2144 4.53572C10.382 4.58086 10.5367 4.60714 10.6695 4.60714C11.0681 4.60714 11.3152 4.41093 11.428 4.00893C11.484 3.80693 11.5272 3.56907 11.4012 3.34821C11.289 3.15136 11.0646 3.01164 10.723 2.91964C10.5722 2.87907 10.3879 2.85715 10.1697 2.85715ZM13.8821 3.73215C13.8578 3.72806 13.8258 3.73222 13.8018 3.74102C13.7481 3.76101 12.4877 4.23537 11.9902 4.82137C11.5533 5.33595 11.5411 5.7618 11.9635 6.12495C12.1122 6.25266 12.2929 6.38387 12.5257 6.38387C12.7641 6.38387 13.0006 6.25344 13.2396 5.97316C13.7373 5.38744 13.9878 3.96202 13.9981 3.90173C14.007 3.85145 13.984 3.80038 13.9446 3.7678C13.9246 3.75152 13.9064 3.73629 13.8821 3.73215ZM8.87577 4.58929C8.83208 4.59618 8.77625 4.61558 8.75084 4.66071C8.72542 4.70585 8.73263 4.7685 8.75976 4.8125C8.79003 4.86221 9.51401 6.034 10.1965 6.42857C10.4501 6.57543 10.6621 6.64286 10.8569 6.64286C11.2558 6.64286 11.4472 6.33471 11.5083 6.23214C11.6151 6.05186 11.7151 5.83471 11.6511 5.58928C11.594 5.36986 11.4152 5.17914 11.1068 5C10.4223 4.60515 8.9386 4.58957 8.87577 4.58929ZM8.65267 5.78572C8.62801 5.78934 8.60141 5.79622 8.58128 5.81251C8.54073 5.84507 8.51917 5.89529 8.52774 5.94643C8.53745 6.00386 8.77233 7.36272 9.2595 7.98215C9.52365 8.31758 9.7853 8.48215 10.0537 8.48215C10.2205 8.48215 10.3824 8.41771 10.5535 8.28572C10.72 8.15715 10.8969 7.99279 10.9283 7.74108C10.9563 7.51593 10.8632 7.27079 10.6427 6.99108C10.1541 6.37336 8.78203 5.81808 8.72407 5.79465C8.70008 5.78496 8.67734 5.78202 8.65267 5.78572ZM13.6055 6.66964C13.5481 6.67022 12.1933 6.68915 11.5262 7.07143C10.9391 7.40743 10.788 7.8095 11.0621 8.29464C11.1421 8.43579 11.3351 8.75893 11.7314 8.75893C11.9056 8.75893 12.0982 8.69829 12.3204 8.57143C12.9889 8.18829 13.709 6.93736 13.7393 6.88393C13.765 6.83964 13.7564 6.78507 13.7304 6.74107C13.7045 6.69708 13.6657 6.67022 13.6055 6.66964ZM8.12616 7.13393C8.10128 7.13183 8.07804 7.1407 8.05477 7.15179C8.00822 7.17407 7.97788 7.21643 7.97445 7.26786C7.97045 7.32614 7.88214 8.70593 8.2154 9.41965C8.42843 9.87879 8.69965 10.0982 9.02748 10.0982C9.1457 10.0982 9.26293 10.0718 9.40228 10.0089C9.59475 9.9215 9.80515 9.80108 9.8931 9.5625C9.97163 9.34936 9.93593 9.089 9.78601 8.76786C9.45476 8.05415 8.24838 7.19672 8.19755 7.16072C8.17642 7.14586 8.15104 7.13601 8.12616 7.13393ZM9.8931 9.5625C9.82282 9.706 9.80464 9.88379 9.83956 10.0893C9.87697 10.3044 9.96406 10.8125 10.6249 10.8125C10.7151 10.8125 10.82 10.7959 10.9283 10.7768C11.6847 10.6411 12.7912 9.70935 12.838 9.66964C12.8768 9.6365 12.892 9.57706 12.8826 9.52678C12.8732 9.47622 12.833 9.43621 12.7844 9.41964C12.7433 9.40535 11.77 9.07143 11.0175 9.07143C10.8979 9.07143 10.7838 9.08111 10.6873 9.09821C10.2716 9.1725 10.0102 9.32335 9.8931 9.5625ZM7.13561 8.16964C7.08477 8.1791 7.0448 8.21008 7.02852 8.25893C7.00996 8.31407 6.57161 9.62664 6.70726 10.4018C6.81063 10.9935 7.08756 11.2946 7.51933 11.2946C7.58187 11.2946 7.64277 11.2874 7.70674 11.2768C7.91463 11.2414 8.14922 11.1717 8.29572 10.9643C8.42593 10.7794 8.45528 10.5274 8.39388 10.1786C8.25709 9.40257 7.31865 8.26228 7.27839 8.21428C7.24498 8.17485 7.18729 8.15993 7.13561 8.16964ZM5.69885 9.1875C5.64745 9.19182 5.60454 9.221 5.58284 9.26786C5.55885 9.32128 4.99343 10.5806 5.04741 11.3661C5.09538 12.0221 5.36267 12.3393 5.86841 12.3393C5.89439 12.3393 5.92131 12.3407 5.94872 12.3393C5.97214 12.3378 5.99615 12.3327 6.02011 12.3304C4.86663 12.8067 2.69104 13.5251 0.112471 13.4286C-0.244486 13.826 0.362341 14 0.362341 14C0.362341 14 3.93943 13.9971 6.24321 12.4554C6.21848 12.5019 6.20081 12.5523 6.18074 12.6071C6.10907 12.8037 6.04603 13.0384 6.15397 13.2679C6.25078 13.4736 6.45924 13.6306 6.7965 13.75C7.01495 13.8271 7.31565 13.8661 7.68889 13.8661C8.35597 13.8661 9.03462 13.7459 9.06317 13.7411C9.114 13.7316 9.15341 13.692 9.17026 13.6429C9.18711 13.5937 9.17804 13.5386 9.14349 13.5C9.10437 13.4566 8.17399 12.4325 7.43009 12.1696C7.1524 12.0715 6.92381 12.0449 6.73403 12.0804C6.79323 12.0298 6.85605 11.9819 6.91251 11.9286C6.91251 11.9286 6.7659 12.004 6.54663 12.1071C6.55274 12.1007 6.55854 12.0961 6.56447 12.0893C6.71325 11.9184 6.77729 11.6654 6.75188 11.3125C6.69676 10.5276 5.86755 9.302 5.83271 9.25C5.80387 9.20743 5.75025 9.18435 5.69885 9.1875ZM8.77761 10.7679C8.37908 10.811 8.15793 11.0411 8.09047 11.4554C8.05877 11.6631 8.04735 11.9031 8.19755 12.1071C8.33234 12.2897 8.568 12.4031 8.92039 12.4554C8.99692 12.4668 9.07481 12.4732 9.16134 12.4732C9.95321 12.4732 11.0856 12.0278 11.1335 12.0089C11.1818 11.9901 11.2159 11.9529 11.2228 11.9018C11.2296 11.8506 11.2106 11.799 11.1692 11.7679C11.1227 11.733 10.0135 10.902 9.23273 10.7857C9.06075 10.7598 8.91045 10.7535 8.77761 10.7679Z" fill="black"/>
</svg>
