<svg width="12" height="12" viewBox="0 0 12 12" fill="none" xmlns="http://www.w3.org/2000/svg">
<path d="M6 11.8334C6.1547 11.8334 6.30305 11.7719 6.41242 11.6625L11.6624 6.41251C11.7219 6.353 11.7679 6.28131 11.7971 6.20237C11.8263 6.12343 11.8381 6.0391 11.8316 5.95518L11.4565 1.08026C11.4459 0.941392 11.386 0.810891 11.2876 0.712355C11.1891 0.61382 11.0587 0.553752 10.9198 0.543013L6.04492 0.166763C5.961 0.160297 5.87667 0.172068 5.79773 0.201268C5.71879 0.230469 5.6471 0.276408 5.58759 0.33593L0.337586 5.58593C0.228228 5.69532 0.166794 5.84367 0.166794 5.99835C0.166794 6.15303 0.228228 6.30137 0.337586 6.41076L5.58759 11.6608C5.6416 11.7153 5.70583 11.7585 5.77659 11.7882C5.84736 11.8178 5.92328 11.8332 6 11.8334ZM6.22284 1.3521L10.3318 1.66826L10.648 5.77726L6 10.4253L1.57484 6.0001L6.22284 1.3521ZM7.42509 4.57501C7.26189 4.41187 7.15074 4.20399 7.1057 3.97767C7.06065 3.75135 7.08373 3.51675 7.17203 3.30355C7.26032 3.09035 7.40985 2.90812 7.60172 2.77991C7.79358 2.6517 8.01916 2.58326 8.24992 2.58326C8.48068 2.58326 8.70626 2.6517 8.89812 2.77991C9.08999 2.90812 9.23952 3.09035 9.32781 3.30355C9.4161 3.51675 9.43919 3.75135 9.39414 3.97767C9.3491 4.20399 9.23795 4.41187 9.07475 4.57501C8.85597 4.79373 8.55928 4.9166 8.24992 4.9166C7.94056 4.9166 7.64387 4.79373 7.42509 4.57501Z" fill="black"/>
</svg>
