<svg width="18" height="20" viewBox="0 0 18 20" fill="none" xmlns="http://www.w3.org/2000/svg">
<path d="M11 10H17M11 10C11 11.1046 10.1046 12 9 12C7.89543 12 7 11.1046 7 10M11 10C11 8.89543 10.1046 8 9 8C7.89543 8 7 8.89543 7 10M1 3H13M13 3C13 4.10457 13.8954 5 15 5C16.1046 5 17 4.10457 17 3C17 1.89543 16.1046 1 15 1C13.8954 1 13 1.89543 13 3ZM1 10H7M5 17H17M5 17C5 18.1046 4.10457 19 3 19C1.89543 19 1 18.1046 1 17C1 15.8954 1.89543 15 3 15C4.10457 15 5 15.8954 5 17Z" stroke="#0C0310" stroke-linecap="round"/>
</svg>
