<svg width="18" height="18" viewBox="0 0 18 18" fill="none" xmlns="http://www.w3.org/2000/svg">
<path d="M1.77285 9.71845L1.12968 9.811L1.12441 9.7744C0.986576 8.81653 0.875634 8.04555 0.853944 7.40986C0.831431 6.75005 0.901321 6.17606 1.1654 5.62522C1.42933 5.07468 1.83341 4.65956 2.36251 4.26151C2.87271 3.87767 3.54497 3.47722 4.38101 2.97921L4.41253 2.96043L4.73639 3.50411L4.41253 2.96043L5.45116 2.34172L5.48008 2.3245C6.239 1.8724 6.85019 1.50831 7.37995 1.26104C7.92976 1.00441 8.43895 0.85 9 0.85C9.56104 0.85 10.0702 1.00441 10.62 1.26104C11.1499 1.50834 11.7612 1.8725 12.5202 2.32468L12.5488 2.34172L12.5488 2.34173L13.5875 2.96042L13.5875 2.96043L13.6192 2.97931C14.4551 3.47727 15.1273 3.8777 15.6375 4.26151C16.1666 4.65955 16.5706 5.07466 16.8346 5.6252L1.77285 9.71845ZM1.77285 9.71845L1.12968 9.811L1.33875 11.264L1.3451 11.3081C1.52247 12.5409 1.66442 13.5275 1.87699 14.2974C2.09707 15.0945 2.41243 15.7384 2.98764 16.2337C3.56232 16.7285 4.24739 16.9468 5.07136 17.0501C5.86823 17.15 6.87129 17.15 8.12627 17.15H8.17042H9.82957H9.87372C11.1287 17.15 12.1317 17.15 12.9286 17.0501C13.7526 16.9468 14.4377 16.7285 15.0124 16.2337L15.0124 16.2337C15.5876 15.7384 15.9029 15.0945 16.123 14.2974C16.3355 13.5276 16.4775 12.5411 16.6549 11.3084L16.6613 11.264L16.6613 11.264M1.77285 9.71845L16.6613 11.264M16.6613 11.264L16.8703 9.81101L16.8703 9.81098M16.6613 11.264L16.8703 9.81098M16.8703 9.81098L16.8755 9.7748C17.0134 8.81674 17.1244 8.04564 17.1461 7.40986C17.1686 6.75005 17.0987 6.17607 16.8346 5.62524L16.8703 9.81098Z" stroke="#949498" stroke-width="1.3"/>
</svg>
