<svg width="7" height="10" viewBox="0 0 7 10" fill="none" xmlns="http://www.w3.org/2000/svg">
<path d="M3.41563 4.99965C3.65046 4.99965 3.85155 4.91909 4.01892 4.75798C4.186 4.59714 4.26954 4.4037 4.26954 4.17765C4.26954 3.9516 4.186 3.75802 4.01892 3.59691C3.85155 3.43607 3.65046 3.35565 3.41563 3.35565C3.18081 3.35565 2.97986 3.43607 2.81277 3.59691C2.64541 3.75802 2.56173 3.9516 2.56173 4.17765C2.56173 4.4037 2.64541 4.59714 2.81277 4.75798C2.97986 4.91909 3.18081 4.99965 3.41563 4.99965ZM3.41563 9.10965C2.26997 8.1712 1.41436 7.29947 0.848785 6.49446C0.282928 5.68972 0 4.94485 0 4.25985C0 3.23235 0.343414 2.41377 1.03024 1.80412C1.71678 1.19447 2.51191 0.889648 3.41563 0.889648C4.31935 0.889648 5.11449 1.19447 5.80103 1.80412C6.48785 2.41377 6.83127 3.23235 6.83127 4.25985C6.83127 4.94485 6.54848 5.68972 5.98291 6.49446C5.41705 7.29947 4.5613 8.1712 3.41563 9.10965Z" fill="#B5B5B5"/>
</svg>
