<svg width="21" height="19" viewBox="0 0 21 19" fill="none" xmlns="http://www.w3.org/2000/svg">
<path d="M20.1992 5.7809C20.1992 5.12576 19.6922 4.59656 19.0679 4.59656H10.752L7.64823 0C7.64823 0 7.42853 0.222215 7.15674 0.495292C6.88588 0.76958 7.97694 2.50586 8.36094 3.14102L9.16859 4.59656H1.33007C0.705263 4.59595 0.199219 5.12515 0.199219 5.7809V6.96464H20.1992C20.1992 6.96464 20.1992 6.43604 20.1992 5.7809Z" fill="#949498"/>
<path d="M15.9945 19C17.2432 19 18.2558 17.6927 18.2558 16.0846L19.3862 8.18289H3.27351C2.02483 8.18289 1.01227 9.48894 1.01227 11.0995L2.14265 19H15.9945ZM14.1553 11.4647C14.1553 10.6593 14.6093 10.0054 15.1684 10.0054H16.1819V15.3543C16.1819 16.1596 15.7279 16.8124 15.1684 16.8124H14.1553V11.4647ZM10.6219 11.4647C10.6219 10.6593 11.0763 10.0054 11.635 10.0054H12.6489V15.3543C12.6489 16.1596 12.195 16.8124 11.635 16.8124H10.6219V11.4647ZM7.08902 11.4647C7.08902 10.6593 7.54296 10.0054 8.10205 10.0054H9.11554V15.3543C9.11554 16.1596 8.6616 16.8124 8.10205 16.8124H7.08902V11.4647ZM3.55516 11.4647C3.55516 10.6593 4.0091 10.0054 4.56866 10.0054H5.58169V15.3543C5.58169 16.1596 5.12775 16.8124 4.56866 16.8124H3.55516V11.4647Z" fill="#949498"/>
</svg>
