<svg width="20" height="20" viewBox="0 0 20 20" fill="none" xmlns="http://www.w3.org/2000/svg">
<path d="M9.90941 10.702C9.84641 10.693 9.76541 10.693 9.69341 10.702C8.10941 10.648 6.84941 9.35196 6.84941 7.75895C6.84941 6.12996 8.16341 4.80696 9.80141 4.80696C11.4304 4.80696 12.7534 6.12996 12.7534 7.75895C12.7444 9.35196 11.4934 10.648 9.90941 10.702Z" stroke="#949498" stroke-width="1.3" stroke-linecap="round" stroke-linejoin="round"/>
<path d="M15.8666 16.642C14.2646 18.109 12.1406 19 9.8006 19C7.46057 19 5.33657 18.109 3.73457 16.642C3.82457 15.796 4.36457 14.968 5.32757 14.32C7.79357 12.682 11.8256 12.682 14.2736 14.32C15.2366 14.968 15.7766 15.796 15.8666 16.642Z" stroke="#949498" stroke-width="1.3" stroke-linecap="round" stroke-linejoin="round"/>
<path d="M9.80078 18.9999C14.7713 18.9999 18.8008 14.9705 18.8008 9.99995C18.8008 5.02941 14.7713 1 9.80078 1C4.83022 1 0.800781 5.02941 0.800781 9.99995C0.800781 14.9705 4.83022 18.9999 9.80078 18.9999Z" stroke="#949498" stroke-width="1.3" stroke-linecap="round" stroke-linejoin="round"/>
</svg>
