<svg width="17" height="19" viewBox="0 0 17 19" fill="none" xmlns="http://www.w3.org/2000/svg">
<path d="M15.8581 5.45962C16.1119 5.20578 16.1119 4.79422 15.8581 4.54038L11.7215 0.403806C11.4676 0.149965 11.0561 0.149965 10.8022 0.403806C10.5484 0.657647 10.5484 1.0692 10.8022 1.32304L14.4792 5L10.8022 8.67696C10.5484 8.9308 10.5484 9.34235 10.8022 9.59619C11.0561 9.85003 11.4676 9.85003 11.7215 9.59619L15.8581 5.45962ZM1.39844 5.65H15.3984V4.35H1.39844V5.65Z" fill="#949498"/>
<path d="M0.938818 13.5404C0.684978 13.7942 0.684978 14.2058 0.938818 14.4596L5.07539 18.5962C5.32923 18.85 5.74079 18.85 5.99463 18.5962C6.24847 18.3424 6.24847 17.9308 5.99463 17.677L2.31768 14L5.99463 10.323C6.24847 10.0692 6.24847 9.65765 5.99463 9.40381C5.74079 9.14997 5.32923 9.14997 5.07539 9.40381L0.938818 13.5404ZM15.3984 13.35H1.39844V14.65H15.3984V13.35Z" fill="#949498"/>
</svg>
