<svg width="22" height="21" viewBox="0 0 22 21" fill="none" xmlns="http://www.w3.org/2000/svg">
<path d="M19.2006 1.83301H2.80198C2.64898 1.83298 2.50054 1.88627 2.38112 1.98407C2.26169 2.08189 2.17841 2.21839 2.145 2.37109L0.917969 7.10384C0.917969 7.65085 1.13043 8.17545 1.50864 8.56225C1.88684 8.94905 2.39978 9.16634 2.93464 9.16634C3.46949 9.16634 3.98243 8.94905 4.36063 8.56225C4.73883 8.17545 4.9513 7.65085 4.9513 7.10384C4.9513 7.65085 5.16378 8.17545 5.54197 8.56225C5.92017 8.94905 6.43311 9.16634 6.96797 9.16634C7.50283 9.16634 8.01576 8.94905 8.39396 8.56225C8.77216 8.17545 8.98464 7.65085 8.98464 7.10384C8.98464 7.65085 9.19712 8.17545 9.57533 8.56225C9.95346 8.94905 10.4664 9.16634 11.0013 9.16634C11.5362 9.16634 12.0491 8.94905 12.4273 8.56225C12.8055 8.17545 13.018 7.65085 13.018 7.10384C13.018 7.65085 13.2305 8.17545 13.6087 8.56225C13.9868 8.94905 14.4998 9.16634 15.0346 9.16634C15.5695 9.16634 16.0825 8.94905 16.4606 8.56225C16.8388 8.17545 17.0513 7.65085 17.0513 7.10384C17.0513 7.65085 17.2638 8.17545 17.642 8.56225C18.0201 8.94905 18.5331 9.16634 19.068 9.16634C19.6028 9.16634 20.1158 8.94905 20.4939 8.56225C20.8722 8.17545 21.0846 7.65085 21.0846 7.10384L19.8567 2.37109C19.8237 2.21838 19.7405 2.08181 19.6213 1.98396C19.5019 1.88611 19.3535 1.83285 19.2006 1.83301Z" stroke="#949498" stroke-width="1.3" stroke-linecap="round" stroke-linejoin="round"/>
<path d="M2.51953 11.917C2.51953 11.5373 2.21172 11.2295 1.83203 11.2295C1.45234 11.2295 1.14453 11.5373 1.14453 11.917H2.51953ZM20.8529 11.917C20.8529 11.5373 20.545 11.2295 20.1654 11.2295C19.7857 11.2295 19.4779 11.5373 19.4779 11.917H20.8529ZM1.14453 11.917V18.3337H2.51953V11.917H1.14453ZM3.66536 20.8545H18.332V19.4795H3.66536V20.8545ZM20.8529 18.3337V11.917H19.4779V18.3337H20.8529ZM18.332 20.8545C19.7243 20.8545 20.8529 19.7259 20.8529 18.3337H19.4779C19.4779 18.9665 18.9649 19.4795 18.332 19.4795V20.8545ZM1.14453 18.3337C1.14453 19.7259 2.27315 20.8545 3.66536 20.8545V19.4795C3.03253 19.4795 2.51953 18.9665 2.51953 18.3337H1.14453Z" fill="#949498"/>
<path d="M8.70833 12.8335H5.95833C5.7052 12.8335 5.5 13.0387 5.5 13.2918V16.0418C5.5 16.295 5.7052 16.5002 5.95833 16.5002H8.70833C8.96146 16.5002 9.16667 16.295 9.16667 16.0418V13.2918C9.16667 13.0387 8.96146 12.8335 8.70833 12.8335Z" stroke="#949498" stroke-width="1.3"/>
<path d="M16.4987 20.1667V14.2083C16.4987 13.9552 16.2935 13.75 16.0404 13.75H13.2904C13.0373 13.75 12.832 13.9552 12.832 14.2083V20.1667" stroke="#949498" stroke-width="1.3"/>
</svg>
